<?xml version="1.0" encoding="UTF-8"?>
<svg id="Layer_2" data-name="Layer 2" xmlns="http://www.w3.org/2000/svg" xmlns:xlink="http://www.w3.org/1999/xlink" viewBox="0 0 471.3 504.02">
  <defs>
    <style>
      .cls-1 {
        fill: url(#linear-gradient-2);
      }

      .cls-2 {
        fill: #6c43d0;
      }

      .cls-3 {
        fill: none;
      }

      .cls-4 {
        fill: url(#linear-gradient-3);
      }

      .cls-5 {
        fill: url(#linear-gradient);
      }

      .cls-6 {
        fill: url(#linear-gradient-4);
      }
    </style>
    <linearGradient id="linear-gradient" x1="22.63" y1="323.82" x2="191.51" y2="103.5" gradientUnits="userSpaceOnUse">
      <stop offset="0" stop-color="#9275e0"/>
      <stop offset="1" stop-color="#6c43d0"/>
    </linearGradient>
    <linearGradient id="linear-gradient-2" x1="318.36" y1="492.87" x2="89.09" y2="268.63" gradientUnits="userSpaceOnUse">
      <stop offset="0" stop-color="#9275e0"/>
      <stop offset=".95" stop-color="#6c43d0"/>
    </linearGradient>
    <linearGradient id="linear-gradient-3" x1="466.92" y1="311.55" x2="304.19" y2="421.71" xlink:href="#linear-gradient"/>
    <linearGradient id="linear-gradient-4" x1="163.01" y1="16.37" x2="374.39" y2="169.03" xlink:href="#linear-gradient"/>
  </defs>
  <g id="Layer_1-2" data-name="Layer 1">
    <g>
      <path class="cls-5" d="m282.13,121.22c-6.15-5.44-13.44-8.91-21.04-10.46-14.48-2.94-30.1,1.22-41.35,12.43l-96.54,96.57c-1.11,1.11-2.15,2.25-3.11,3.47l-.08.1-.03.03c-.03.05-.1.13-.2.23-3.01,3.29-34.61,38-38.86,42.49-.08.08-.15.15-.2.2-21.47,22.03-34.69,52.16-34.69,85.33s12.86,62.46,33.8,84.41C30.71,390.06,0,324.64,0,252.02c0-60.11,21.01-115.25,56.13-158.57,2.51-3.11,5.09-6.15,7.77-9.14,22.28-23.77,53.98-38.64,89.15-38.64,33.32,0,63.53,13.34,85.58,34.99l.13.13,43.37,40.43Z"/>
      <path class="cls-3" d="m267.22,424.85l-.48-.43.03-.03.46.46Z"/>
      <path class="cls-3" d="m63.92,84.31c-2.68,2.99-5.27,6.03-7.77,9.14,2.46-3.19,5.04-6.23,7.77-9.14Z"/>
      <path class="cls-1" d="m432.4,427.96c-45.75,46.92-109.68,76.06-180.4,76.06-56.92,0-109.46-18.89-151.64-50.71-7.11-5.37-13.93-11.09-20.43-17.19l-.1-.1c-20.94-21.95-33.8-51.7-33.8-84.41s13.22-63.3,34.69-85.33c.05-.05.13-.13.2-.2,4.25-4.48,35.85-39.19,38.86-42.49.1-.1.18-.18.2-.23-4.91,6.05-8.05,13.06-9.37,20.36,0,.05-.03.08-.03.13-2.58,14.23,1.62,29.42,12.61,40.41l2.71,2.71,93.83,93.86c.33.33.66.63.99.94l1.37,1.27,44.64,41.4.48.43,1.44,1.34c21.77,20.1,50.89,32.38,82.84,32.38s59.32-11.57,80.89-30.61Z"/>
      <path class="cls-3" d="m100.37,453.31c-7.44-4.96-14.28-10.74-20.43-17.19,6.51,6.1,13.32,11.82,20.43,17.19Z"/>
      <path class="cls-4" d="m465.92,385.3c-3.44,5.49-7.09,10.86-10.94,16.08,0,0,0,.03-.03.03-6.86,9.34-14.41,18.23-22.53,26.53,0,0-.03,0-.03.03-21.57,19.04-49.88,30.61-80.89,30.61s-61.07-12.28-82.84-32.38l-1.44-1.34-.46-.46-.03.03-44.64-41.4c6.25,5.42,13.6,8.84,21.29,10.33,14.36,2.73,29.75-1.44,40.87-12.53l3.87-3.87,53.58-53.6c16.52-16.53,43.26-16.72,60.02-.44l62.49,60.72,1.7,1.67Z"/>
      <path class="cls-3" d="m454.97,401.41c-6.23,9.9-13.82,18.81-22.53,26.53,8.13-8.3,15.67-17.19,22.53-26.53Z"/>
      <line class="cls-3" x1="284.27" y1="123.2" x2="282.14" y2="121.23"/>
      <path class="cls-6" d="m465.61,118.27l-62.82,60.31-.96.94c-8,7.52-18.79,12.15-30.66,12.15s-21.93-4.3-29.85-11.39l-3.49-3.49-53.55-53.58c-.68-.68-1.39-1.34-2.13-1.97l-43.37-40.43-.13-.13c-22.05-21.65-52.26-34.99-85.58-34.99-35.17,0-66.87,14.86-89.15,38.64C110.05,32.59,177.22,0,252.01,0c90.04,0,169.06,47.22,213.59,118.27Z"/>
      <line class="cls-3" x1="465.63" y1="118.24" x2="465.61" y2="118.27"/>
      <line class="cls-3" x1="121.65" y1="221.44" x2="120.1" y2="223.24"/>
      <line class="cls-3" x1="471.3" y1="390.52" x2="465.94" y2="385.31"/>
      <path class="cls-2" d="m232.85,189.46c-4.21-2.59-9.51-2.68-13.81-.26-4.3,2.42-6.98,6.98-6.98,11.93v100.23c0,4.95,2.68,9.51,6.98,11.93,4.3,2.42,9.6,2.31,13.81-.26l82.01-50.12c4.07-2.48,6.55-6.89,6.55-11.67s-2.48-9.17-6.55-11.67l-82.01-50.12Z"/>
    </g>
  </g>
</svg>